#!OML:ASF I:\Actors\actors\Patient Classification 2\Patient 1\Session 1\actor1.ASF
:FULLY-SPECIFIED
:DEGREES
561
root -0.513967 18.9145 5.133 18.4027 -4.5538 2.202
lowerback 26.3775 -2.90715 3.86207
upperback 3.0844 -2.28935 2.99331
thorax -11.2579 -1.14907 1.96929
lowerneck -6.89634 -3.56074 -1.84453
upperneck -4.07116 -4.68201 -0.958658
head -0.104423 -2.34354 -0.0798528
rclavicle 1.51076e-014 5.64548e-014
rhumerus 12.9016 29.5185 -52.3667
rradius 147.652
rwrist -40.1101
rhand -17.5085 -52.4805
rfingers 7.12502
rthumb 8.74466 -82.2793
lclavicle 1.51076e-014 5.64548e-014
lhumerus 10.1175 -45.5002 70.0839
lradius 138.105
lwrist 17.6118
lhand -18.4031 -33.7181
lfingers 7.12502
lthumb 7.88128 -3.88503
rfemur -15.7961 7.46014 7.90546
rtibia 1.93703
rfoot -16.3344 -17.497
rtoes -8.40659
lfemur -28.8089 8.17175 -19.2726
ltibia 25.3186
lfoot -14.819 8.3538
ltoes -54.9062
562
root -0.510873 18.9158 5.13449 18.4733 -4.4622 2.19132
lowerback 26.3145 -2.85468 3.89733
upperback 3.11621 -2.22625 2.91787
thorax -11.1926 -1.12363 1.83657
lowerneck -6.89338 -3.11858 -1.12832
upperneck -3.90644 -4.14792 -1.83882
head -0.087692 -2.08884 -0.451359
rclavicle 3.18055e-015 -1.74931e-014
rhumerus 12.2142 29.4967 -52.2417
rradius 148.01
rwrist -38.9477
rhand -17.4073 -50.7059
rfingers 7.12502
rthumb 8.84231 -80.5007
lclavicle 3.18055e-015 -1.74931e-014
lhumerus 11.1111 -45.6577 69.8289
lradius 138.019
lwrist 18.8635
lhand -18.8649 -33.2798
lfingers 7.12502
lthumb 7.43557 -3.43047
rfemur -15.7675 7.36 7.92515
rtibia 1.77341
rfoot -16.2284 -17.5985
rtoes -8.6464
lfemur -28.9313 8.129 -19.2728
ltibia 25.3869
lfoot -14.7825 8.31472
ltoes -54.9018
563
root -0.506118 18.9179 5.13485 18.5136 -4.35927 2.19759
lowerback 26.3968 -2.96399 3.69401
upperback 3.11699 -2.3962 3.10315
thorax -11.2186 -1.18749 2.227
lowerneck -7.14651 -2.56703 -1.44842
upperneck -3.54026 -3.37677 -2.33894
head 0.0666666 -1.70564 -0.545075
rclavicle -1.43125e-014 -1.19271e-014
rhumerus 12.241 30.0414 -51.3089
rradius 148.188
rwrist -37.6186
rhand -17.2118 -48.6907
rfingers 7.12502
rthumb 9.03094 -78.4774
lclavicle -1.43125e-014 -1.19271e-014
lhumerus 11.4159 -45.132 70.182
lradius 137.947
lwrist 20.7901
lhand -19.5006 -32.9018
lfingers 7.12502
lthumb 6.82195 -3.03167
rfemur -15.6573 7.24827 7.93004
rtibia 1.49808
rfoot -15.9864 -17.8093
rtoes -9.44392
lfemur -29.0075 7.95985 -19.2597
ltibia 25.4331
lfoot -14.7972 8.3709
ltoes -54.8361
564
root -0.504539 18.9195 5.13585 18.5293 -4.21512 2.21638
lowerback 26.4595 -2.94024 3.70935
upperback 3.118 -2.36942 2.999
thorax -11.2558 -1.178 2.09398
lowerneck -7.42369 -2.1702 -1.0253
upperneck -3.08387 -2.85926 -2.80837
head 0.245703 -1.46057 -0.756562
rclavicle 1.19271e-014 3.97569e-015
rhumerus 11.2535 30.2799 -50.9053
rradius 148.412
rwrist -35.745
rhand -17.0548 -46.4167
rfingers 7.12502
rthumb 9.18244 -76.1967
lclavicle 1.19271e-014 3.97569e-015
lhumerus 12.7952 -45.041 69.7973
lradius 137.744
lwrist 24.1954
lhand -18.8673 -32.663
lfingers 7.12502
lthumb 7.43324 -2.81362
rfemur -15.4216 7.10375 7.95223
rtibia 1.06513
rfoot -15.7895 -18.0194
rtoes -9.78504
lfemur -29.0486 7.78184 -19.2392
ltibia 25.4542
lfoot -14.8117 8.39258
ltoes -54.8138
565
root -0.505635 18.9207 5.13992 18.5606 -4.00371 2.23269
lowerback 26.4382 -2.9746 3.63932
upperback 3.12601 -2.43614 2.98584
thorax -11.2328 -1.20565 2.14119
lowerneck -7.69061 -1.80113 -0.852365
upperneck -2.72715 -2.36221 -3.20742
head 0.401149 -1.22283 -0.904569
rclavicle 3.53837e-014 -3.33958e-014
rhumerus 10.0297 30.7135 -50.7347
rradius 148.663
rwrist -33.7091
rhand -16.3008 -44.3532
rfingers 7.12502
rthumb 9.90993 -74.1
lclavicle 3.53837e-014 -3.33958e-014
lhumerus 14.0799 -44.4039 69.6645
lradius 137.442
lwrist 28.8694
lhand -19.5748 -31.0963
lfingers 7.12502
lthumb 6.7503 -1.2239
rfemur -14.9969 6.89592 8.00001
rtibia 0.307386
rfoot -15.5753 -18.2174
rtoes -9.39454
lfemur -29.1013 7.63501 -19.2126
ltibia 25.461
lfoot -14.7871 8.34129
ltoes -54.8744
566
root -0.505598 18.9221 5.14487 18.5994 -3.80285 2.24356
lowerback 26.4284 -3.06287 3.51494
upperback 3.08473 -2.5771 3.03755
thorax -11.2663 -1.2632 2.32244
lowerneck -7.76204 -1.50952 -0.799134
upperneck -2.5409 -1.96815 -3.70838
head 0.473153 -1.03427 -1.06255
rclavicle 6.24184e-014 -1.98785e-014
rhumerus 8.54633 31.4334 -51.0979
rradius 148.85
rwrist -31.4035
rhand -15.0288 -42.8886
rfingers 7.12502
rthumb 11.1369 -72.573
lclavicle 6.24184e-014 -1.98785e-014
lhumerus 14.8544 -43.4784 69.9315
lradius 137.078
lwrist 34.5253
lhand -19.774 -29.9827
lfingers 7.12502
lthumb 6.55803 -0.104277
rfemur -14.8023 6.69513 8.04197
rtibia -5.88403e-014
rfoot -15.5085 -18.2251
rtoes -8.95673
lfemur -29.1648 7.62269 -19.2229
ltibia 25.46
lfoot -14.7223 8.19192
ltoes -54.9478
567
root -0.506064 18.9231 5.14754 18.6231 -3.65076 2.20828
lowerback 26.4851 -3.15731 3.40319
upperback 2.98548 -2.71285 3.11751
thorax -11.3998 -1.31738 2.53384
lowerneck -7.41357 -1.26214 -0.798048
upperneck -2.55826 -1.64524 -4.27538
head 0.412303 -0.874319 -1.22824
rclavicle -1.07344e-014 -1.27222e-014
rhumerus 8.11395 32.0095 -50.9204
rradius 148.742
rwrist -30.2176
rhand -14.8272 -42.6281
rfingers 7.12502
rthumb 11.3314 -72.302
lclavicle -1.07344e-014 -1.27222e-014
lhumerus 14.909 -42.7747 70.629
lradius 137.016
lwrist 40.7543
lhand -20.1361 -28.9096
lfingers 7.12502
lthumb 6.20839 0.979417
rfemur -14.7728 6.56003 8.12227
rtibia 2.14687e-014
rfoot -15.5732 -18.1488
rtoes -8.51822
lfemur -29.2142 7.78503 -19.2241
ltibia 25.4472
lfoot -14.6148 7.95245
ltoes -54.9896
